{
    "asset" : {
        "generator" : "Khronos glTF Blender I/O v1.8.19",
        "version" : "2.0"
    },
    "scene" : 0,
    "scenes" : [
        {
            "name" : "Scene",
            "nodes" : [
                0,
                1,
                2,
                3
            ]
        }
    ],
    "nodes" : [
        {
            "mesh" : 0,
            "name" : "Cube",
            "scale" : [
                1,
                1.8745698928833008,
                0.10232699662446976
            ]
        },
        {
            "mesh" : 1,
            "name" : "Cube.001",
            "rotation" : [
                0.5,
                0.5,
                0.5,
                0.4999999701976776
            ],
            "scale" : [
                1,
                0.49339720606803894,
                1
            ],
            "translation" : [
                0.006403207778930664,
                0.013038277626037598,
                0.1012534350156784
            ]
        },
        {
            "mesh" : 2,
            "name" : "Cube.002",
            "rotation" : [
                0.5,
                0.5,
                -0.5,
                0.4999999701976776
            ],
            "scale" : [
                1,
                0.10000000149011612,
                1
            ],
            "translation" : [
                1,
                1.5,
                0
            ]
        },
        {
            "mesh" : 3,
            "name" : "Cube.003",
            "rotation" : [
                0.5,
                0.5,
                -0.5,
                0.4999999701976776
            ],
            "scale" : [
                1,
                0.10000000149011612,
                1
            ],
            "translation" : [
                1,
                1.100000023841858,
                0
            ]
        }
    ],
    "materials" : [
        {
            "doubleSided" : true,
            "name" : "Material",
            "pbrMetallicRoughness" : {
                "baseColorFactor" : [
                    0.34165817499160767,
                    0.04342871159315109,
                    0.8000000715255737,
                    1
                ],
                "metallicFactor" : 0,
                "roughnessFactor" : 0.4000000059604645
            }
        },
        {
            "doubleSided" : true,
            "name" : "Material.001",
            "pbrMetallicRoughness" : {
                "baseColorFactor" : [
                    0.07821691781282425,
                    0.09593849629163742,
                    0.09101064503192902,
                    1
                ],
                "metallicFactor" : 0,
                "roughnessFactor" : 0.4000000059604645
            }
        }
    ],
    "meshes" : [
        {
            "name" : "Cube",
            "primitives" : [
                {
                    "attributes" : {
                        "POSITION" : 0,
                        "NORMAL" : 1,
                        "TEXCOORD_0" : 2
                    },
                    "indices" : 3,
                    "material" : 0
                }
            ]
        },
        {
            "name" : "Cube.001",
            "primitives" : [
                {
                    "attributes" : {
                        "POSITION" : 4,
                        "NORMAL" : 5,
                        "TEXCOORD_0" : 6
                    },
                    "indices" : 7,
                    "material" : 1
                }
            ]
        },
        {
            "name" : "Cube.002",
            "primitives" : [
                {
                    "attributes" : {
                        "POSITION" : 8,
                        "NORMAL" : 9,
                        "TEXCOORD_0" : 10
                    },
                    "indices" : 7
                }
            ]
        },
        {
            "name" : "Cube.003",
            "primitives" : [
                {
                    "attributes" : {
                        "POSITION" : 11,
                        "NORMAL" : 12,
                        "TEXCOORD_0" : 13
                    },
                    "indices" : 7
                }
            ]
        }
    ],
    "accessors" : [
        {
            "bufferView" : 0,
            "componentType" : 5126,
            "count" : 96,
            "max" : [
                1,
                1,
                1
            ],
            "min" : [
                -1,
                -1,
                -1
            ],
            "type" : "VEC3"
        },
        {
            "bufferView" : 1,
            "componentType" : 5126,
            "count" : 96,
            "type" : "VEC3"
        },
        {
            "bufferView" : 2,
            "componentType" : 5126,
            "count" : 96,
            "type" : "VEC2"
        },
        {
            "bufferView" : 3,
            "componentType" : 5123,
            "count" : 132,
            "type" : "SCALAR"
        },
        {
            "bufferView" : 4,
            "componentType" : 5126,
            "count" : 24,
            "max" : [
                1.793076515197754,
                0.021773576736450195,
                0.9437220096588135
            ],
            "min" : [
                -1.793076515197754,
                -0.021773576736450195,
                -0.9437220096588135
            ],
            "type" : "VEC3"
        },
        {
            "bufferView" : 5,
            "componentType" : 5126,
            "count" : 24,
            "type" : "VEC3"
        },
        {
            "bufferView" : 6,
            "componentType" : 5126,
            "count" : 24,
            "type" : "VEC2"
        },
        {
            "bufferView" : 7,
            "componentType" : 5123,
            "count" : 36,
            "type" : "SCALAR"
        },
        {
            "bufferView" : 8,
            "componentType" : 5126,
            "count" : 24,
            "max" : [
                0.04210859537124634,
                0.055176734924316406,
                0.13198667764663696
            ],
            "min" : [
                -0.04210859537124634,
                -0.055176734924316406,
                -0.13198667764663696
            ],
            "type" : "VEC3"
        },
        {
            "bufferView" : 9,
            "componentType" : 5126,
            "count" : 24,
            "type" : "VEC3"
        },
        {
            "bufferView" : 10,
            "componentType" : 5126,
            "count" : 24,
            "type" : "VEC2"
        },
        {
            "bufferView" : 11,
            "componentType" : 5126,
            "count" : 24,
            "max" : [
                0.039203397929668427,
                0.19775104522705078,
                0.16016536951065063
            ],
            "min" : [
                -0.039203397929668427,
                -0.19775104522705078,
                -0.16016536951065063
            ],
            "type" : "VEC3"
        },
        {
            "bufferView" : 12,
            "componentType" : 5126,
            "count" : 24,
            "type" : "VEC3"
        },
        {
            "bufferView" : 13,
            "componentType" : 5126,
            "count" : 24,
            "type" : "VEC2"
        }
    ],
    "bufferViews" : [
        {
            "buffer" : 0,
            "byteLength" : 1152,
            "byteOffset" : 0
        },
        {
            "buffer" : 0,
            "byteLength" : 1152,
            "byteOffset" : 1152
        },
        {
            "buffer" : 0,
            "byteLength" : 768,
            "byteOffset" : 2304
        },
        {
            "buffer" : 0,
            "byteLength" : 264,
            "byteOffset" : 3072
        },
        {
            "buffer" : 0,
            "byteLength" : 288,
            "byteOffset" : 3336
        },
        {
            "buffer" : 0,
            "byteLength" : 288,
            "byteOffset" : 3624
        },
        {
            "buffer" : 0,
            "byteLength" : 192,
            "byteOffset" : 3912
        },
        {
            "buffer" : 0,
            "byteLength" : 72,
            "byteOffset" : 4104
        },
        {
            "buffer" : 0,
            "byteLength" : 288,
            "byteOffset" : 4176
        },
        {
            "buffer" : 0,
            "byteLength" : 288,
            "byteOffset" : 4464
        },
        {
            "buffer" : 0,
            "byteLength" : 192,
            "byteOffset" : 4752
        },
        {
            "buffer" : 0,
            "byteLength" : 288,
            "byteOffset" : 4944
        },
        {
            "buffer" : 0,
            "byteLength" : 288,
            "byteOffset" : 5232
        },
        {
            "buffer" : 0,
            "byteLength" : 192,
            "byteOffset" : 5520
        }
    ],
    "buffers" : [
        {
            "byteLength" : 5712,
            "uri" : "untitled.bin"
        }
    ]
}
